<svg width="41" height="41" viewBox="0 0 41 41" fill="none" xmlns="http://www.w3.org/2000/svg">
<path d="M37.65 15.15L35.55 13.05L37.8 10.8L29.95 2.95L27.7 5.2L25.55 3.05L27.05 1.5C27.8167 0.733333 28.7667 0.358333 29.9 0.375C31.0333 0.391667 31.9833 0.783333 32.75 1.55L39.2 8C39.9667 8.76667 40.35 9.70833 40.35 10.825C40.35 11.9417 39.9667 12.8833 39.2 13.65L37.65 15.15ZM13.65 39.2C12.8833 39.9667 11.9417 40.35 10.825 40.35C9.70833 40.35 8.76667 39.9667 8 39.2L0.85 32.05C0.283333 31.4707 0 30.7593 0 29.9156C0 29.0719 0.283333 28.3667 0.85 27.8L3.05 25.6L5.2 27.7L2.95 29.95L10.8 37.8L13.05 35.55L15.15 37.7L13.65 39.2ZM33.5 23.8L37.75 19.55L21.2 3L16.95 7.25L33.5 23.8ZM19.5 37.8L23.8 33.5L7.25 16.95L2.95 21.25L19.5 37.8ZM19.95 25.4L25.4 19.95L20.8 15.35L15.35 20.8L19.95 25.4ZM21.6 39.9C21.0355 40.4667 20.3361 40.75 19.5016 40.75C18.6672 40.75 17.9667 40.4667 17.4 39.9L0.85 23.35C0.283333 22.7855 0 22.0861 0 21.2516C0 20.4172 0.283333 19.7167 0.85 19.15L5.1 14.85C5.67927 14.2833 6.39075 14 7.23445 14C8.07815 14 8.78333 14.2833 9.35 14.85L13.2 18.7L18.7 13.2L14.85 9.35C14.2833 8.78553 14 8.08608 14 7.25165C14 6.41722 14.2833 5.71667 14.85 5.15L19.1 0.85C19.6793 0.283333 20.3908 0 21.2345 0C22.0782 0 22.7833 0.283333 23.35 0.85L39.9 17.4C40.4667 17.9793 40.75 18.6908 40.75 19.5345C40.75 20.3782 40.4667 21.0833 39.9 21.65L35.6 25.9C35.0355 26.4667 34.3361 26.75 33.5017 26.75C32.6672 26.75 31.9667 26.4667 31.4 25.9L27.55 22.05L22.05 27.55L25.9 31.4C26.4667 31.9793 26.75 32.6907 26.75 33.5344C26.75 34.3781 26.4667 35.0833 25.9 35.65L21.6 39.9Z" fill="#F56349"/>
</svg>
