<svg width="44" height="36" viewBox="0 0 44 36" fill="none" xmlns="http://www.w3.org/2000/svg">
<path d="M22.5 36L21.5 16.1L14.05 13.5H0V10.5H12.15L25.9 0.65L27.85 2.95L20.4 8.3L25.25 10L42.25 0L44 2.1L26.7 14.65L25.5 36H22.5ZM10.004 7.65C9.00133 7.65 8.14167 7.293 7.425 6.579C6.70833 5.86497 6.35 5.00663 6.35 4.004C6.35 3.00133 6.707 2.14167 7.421 1.425C8.13503 0.708333 8.99337 0.35 9.996 0.35C10.9987 0.35 11.8583 0.706999 12.575 1.421C13.2917 2.13503 13.65 2.99337 13.65 3.996C13.65 4.99867 13.293 5.85833 12.579 6.575C11.865 7.29167 11.0066 7.65 10.004 7.65Z" fill="#F56349"/>
</svg>
