<svg width="44" height="32" viewBox="0 0 44 32" fill="none" xmlns="http://www.w3.org/2000/svg">
<path d="M8.8 31.5L6.7 29.4L27.1 9H20V13H17V6H28.15C28.6167 6 29.0667 6.08333 29.5 6.25C29.9333 6.41667 30.3167 6.66667 30.65 7L36.65 12.95C37.6167 13.9167 38.7333 14.65 40 15.15C41.2667 15.65 42.6 15.9333 44 16V19C42.2667 18.9333 40.6 18.6083 39 18.025C37.4 17.4417 36 16.5333 34.8 15.3L32.5 13L26.8 18.7L31.1 23L18.9 30.05L17.4 27.45L26.2 22.35L22.1 18.25L8.8 31.5ZM4 17.5V14.5H14V17.5H4ZM0 11V8H10V11H0ZM37.5 7C36.5333 7 35.7083 6.65833 35.025 5.975C34.3417 5.29167 34 4.46667 34 3.5C34 2.53333 34.3417 1.70833 35.025 1.025C35.7083 0.341667 36.5333 0 37.5 0C38.4667 0 39.2917 0.341667 39.975 1.025C40.6583 1.70833 41 2.53333 41 3.5C41 4.46667 40.6583 5.29167 39.975 5.975C39.2917 6.65833 38.4667 7 37.5 7ZM4 4.5V1.5H14V4.5H4Z" fill="#F56349"/>
</svg>
